<mxfile host="app.diagrams.net" modified="2023-07-20T09:06:59.143Z" agent="Mozilla/5.0 (Macintosh; Intel Mac OS X 10_15_7) AppleWebKit/537.36 (KHTML, like Gecko) Chrome/114.0.0.0 Safari/537.36" version="21.6.3" etag="zyfxc7OEXlWFOMzHQvlS" type="github">
  <diagram name="Страница 1" id="potaPNY2CA8V14HwHhXg">
    <mxGraphModel>
      <root>
        <mxCell id="0" />
        <mxCell id="1" parent="0" />
      </root>
    </mxGraphModel>
  </diagram>
</mxfile>
